# xmcd
# 
# Track frame offsets:
#     150
#     11925
#     23575
#     36060
#     53600
#     69350
#     91815
#     103975
#     121200
#     133360
#     145110
#     156750
#     174955
#     193710
#     204320
# 
# Disc length: 2933
# 
# Revision: 1
# Processed by: cddbd v1.5.2PL0 Copyright (c) Steve Scherf et al.
# Submitted via: fre:ac v1.0.17
# 
DISCID=c60b730f
DTITLE=Nana Caymmi - Meus Momentos
DYEAR=1994
DGENRE=MPB
TTITLE0=Meu Bem Querer
TTITLE1=De Volta ao Começo
TTITLE2=Só Louco
TTITLE3=Voz e Suor
TTITLE4=A Lua e Eu
TTITLE5=Último Desejo
TTITLE6=Brisa do Mar
TTITLE7=Palavras
TTITLE8=Pérola
TTITLE9=Se Queres Saber
TTITLE10=Neste Mesmo Lugar
TTITLE11=Copacabana
TTITLE12=Dora
TTITLE13=Meu Silêncio
TTITLE14=Acalanto
EXTD=
EXTT0=
EXTT1=
EXTT2=
EXTT3=
EXTT4=
EXTT5=
EXTT6=
EXTT7=
EXTT8=
EXTT9=
EXTT10=
EXTT11=
EXTT12=
EXTT13=
EXTT14=
PLAYORDER=
